<svg width="138" height="115" viewBox="0 0 138 115" fill="none" xmlns="http://www.w3.org/2000/svg">
<path d="M0 0H138V75C138 97.0914 120.091 115 98 115H40C17.9086 115 0 97.0914 0 75V0Z" fill="#B93424"/>
<path d="M87.8627 45.0868C87.8723 44.4999 87.8192 43.9136 87.7044 43.338L87.6128 42.9101C87.5832 42.7691 87.5411 42.6306 87.509 42.4896L87.4545 42.2793L87.3976 42.0715C87.3556 41.9355 87.3234 41.7945 87.2814 41.6585C87.2393 41.5224 87.1998 41.3839 87.1627 41.2454L87.0415 40.8348L86.9821 40.627L86.9178 40.4242C86.8733 40.2881 86.8337 40.1496 86.7892 40.016C86.6111 39.4719 86.4132 38.9376 86.2005 38.4033L86.0347 38.0051L85.8591 37.6118C85.8022 37.4782 85.7379 37.3496 85.6736 37.2209C85.6093 37.0923 85.5499 36.9587 85.4807 36.8326C85.4114 36.7064 85.3471 36.5852 85.2754 36.4467L85.0602 36.0732C84.9167 35.8259 84.7782 35.6033 84.6322 35.3707C83.4693 33.5054 82.0957 31.7799 80.5385 30.2283C79.7618 29.4442 78.9505 28.6922 78.1268 27.9526C77.3028 27.2069 76.432 26.5146 75.5197 25.8798C74.6028 25.239 73.6291 24.6834 72.6109 24.2201C72.0914 23.9925 71.5893 23.802 71.0797 23.6041L70.3154 23.3147L69.5412 23.0427C68.5027 22.6805 67.4375 22.4002 66.3553 22.2041C65.8111 22.1175 65.262 22.0458 64.7153 22.0062C64.4408 21.984 64.1687 21.9716 63.8966 21.9543C63.6245 21.937 63.35 21.9271 63.0803 21.9197L61.4602 21.8652C61.1881 21.8652 60.9284 21.8455 60.6662 21.8281C60.404 21.8108 60.1418 21.7886 59.8796 21.7638C59.3577 21.7119 58.8333 21.6451 58.3039 21.5734C58.0393 21.5363 57.7721 21.5016 57.5 21.4695C57.228 21.4373 56.9484 21.4076 56.6516 21.3928C56.5032 21.3928 56.3474 21.3928 56.1866 21.3928C56.0032 21.3993 55.8209 21.4241 55.6424 21.467L55.5657 21.4868C55.541 21.4868 55.5113 21.5041 55.4841 21.5115C55.4569 21.519 55.3778 21.5486 55.3159 21.5783C55.2541 21.608 55.1972 21.6377 55.1403 21.6723C55.0834 21.7069 55.0166 21.7589 54.9597 21.8059C54.9014 21.8605 54.8461 21.9183 54.794 21.979C54.7452 22.0429 54.7006 22.1098 54.6604 22.1794C54.5916 22.3082 54.5424 22.4466 54.5145 22.59L54.4947 22.6865V22.7755C54.4947 22.8324 54.4947 22.8967 54.4947 22.9487C54.4954 23.0488 54.5028 23.1488 54.517 23.248L54.5368 23.3865L54.564 23.5126L54.606 23.7105C54.606 23.7105 54.606 23.7229 54.606 23.7303C54.4477 23.5349 54.2869 23.3419 54.1113 23.1589C53.7117 22.7131 53.2775 22.2995 52.8127 21.9221C52.5778 21.7281 52.3299 21.5504 52.0706 21.3903C51.9326 21.3053 51.7888 21.2301 51.6402 21.1652C51.4749 21.0891 51.3003 21.035 51.1208 21.0045H51.0441H50.96C50.8967 20.9985 50.8329 20.9985 50.7696 21.0045C50.7318 21.0078 50.6944 21.0153 50.6583 21.0267L50.6014 21.0416L50.5346 21.0688C50.4897 21.0889 50.4466 21.1129 50.406 21.1405C50.3628 21.1727 50.3223 21.2083 50.2848 21.2469C50.1759 21.3606 50.0745 21.4769 49.9756 21.5956C49.775 21.843 49.6025 22.1117 49.4611 22.3971C49.3832 22.5552 49.3218 22.721 49.278 22.8918C49.2256 23.0757 49.2047 23.2673 49.2162 23.4582C49.234 23.6914 49.32 23.9142 49.4635 24.0988L49.5204 24.1681C49.5377 24.1879 49.56 24.2077 49.5798 24.2275C49.6183 24.267 49.6605 24.3026 49.7059 24.3338C49.7479 24.3645 49.7917 24.3926 49.837 24.4179C49.884 24.4451 49.9211 24.46 49.9632 24.4798C50.2614 24.604 50.5751 24.6873 50.8957 24.7271C51.1925 24.7667 51.4819 24.7939 51.7689 24.8261C52.0481 24.8559 52.3255 24.9005 52.6 24.9596C52.7286 24.9867 52.8551 25.0231 52.9784 25.0685C53.0702 25.1017 53.1543 25.153 53.2258 25.2194C53.2001 25.2754 53.1786 25.3333 53.1615 25.3925L52.9141 25.4519C52.6006 25.5131 52.298 25.6206 52.0162 25.771C51.8499 25.8605 51.6981 25.9748 51.566 26.1098C51.4158 26.2646 51.3062 26.4541 51.247 26.6614C51.2004 26.8552 51.1954 27.0567 51.2321 27.2526C51.2644 27.4144 51.3124 27.5726 51.3756 27.725C51.4882 27.994 51.6153 28.2566 51.7565 28.5116C52.0261 29.0063 52.2933 29.4813 52.5233 29.9636C52.6396 30.2109 52.7484 30.441 52.8473 30.6735C52.9463 30.906 53.0353 31.1311 53.0947 31.3438C53.1602 31.5301 53.2074 31.7223 53.2357 31.9177V31.9795L53.248 32.0958C53.248 32.1725 53.2629 32.2491 53.2753 32.3209L53.3074 32.5385L53.347 32.7537C53.4553 33.3044 53.5999 33.8473 53.7799 34.3789C54.141 35.42 54.5665 36.4378 55.0537 37.4262C55.5336 38.4157 56.0209 39.3878 56.5651 40.3376C56.8371 40.8125 57.1191 41.2825 57.4234 41.7401L57.5372 41.9108L57.6534 42.0814C57.7326 42.1952 57.8068 42.309 57.9008 42.4203C58.0615 42.6429 58.2223 42.868 58.3955 43.0857C58.5686 43.3034 58.7418 43.5186 58.9174 43.7338L59.1944 44.0454C59.2414 44.0974 59.2859 44.1493 59.3354 44.1988L59.4813 44.3497C59.8638 44.7593 60.2773 45.1389 60.7181 45.485C60.8294 45.5691 60.9457 45.6606 61.0545 45.7324L61.3884 45.9797C61.6111 46.138 61.8337 46.2914 62.0588 46.4447C62.5114 46.749 62.9616 47.0532 63.4192 47.3476C64.3344 47.9363 65.2571 48.5126 66.197 49.0593C66.667 49.3347 67.1411 49.6035 67.6193 49.8656C68.0967 50.1278 68.5815 50.3826 69.0663 50.63C71.0306 51.6303 73.0781 52.4579 75.1858 53.1035C76.2698 53.4359 77.3804 53.6742 78.5053 53.8159C78.8788 53.8604 79.2474 53.8901 79.6431 53.9025H79.6679C83.0071 54.2166 86.4874 52.1067 86.475 51.6614C86.4626 51.2162 86.2277 51.0752 86.9945 51.043C87.7613 51.0109 88.4613 49.3437 87.8627 45.0868ZM56.293 22.9214C56.3969 22.9214 56.5106 22.9017 56.6318 22.8992C57.1265 22.8992 57.6559 22.9165 58.1951 22.9289C58.7343 22.9412 59.2835 22.9561 59.8351 22.9437C60.1096 22.9437 60.3842 22.9289 60.6588 22.914C60.9333 22.8992 61.2128 22.8819 61.4775 22.8621C62.0142 22.8225 62.5461 22.7904 63.0779 22.7706C64.1338 22.718 65.1924 22.7827 66.2341 22.9635C67.2652 23.1649 68.2724 23.4732 69.2394 23.8837L69.9444 24.2003L70.6617 24.5416C71.1342 24.789 71.619 25.019 72.0568 25.2837C72.9427 25.8183 73.7773 26.4335 74.5501 27.1215C75.3328 27.8095 76.0761 28.5412 76.7763 29.3131C77.1275 29.7014 77.4639 30.1021 77.7904 30.5127C78.1169 30.9233 78.4311 31.3414 78.7378 31.7693C79.9622 33.476 81.152 35.2025 82.4481 36.8845L82.9428 37.5153L83.1654 37.8096C83.2421 37.9086 83.3114 38.01 83.3831 38.1114C83.6739 38.5183 83.9431 38.9402 84.1895 39.3754C84.4352 39.8153 84.6541 40.2696 84.845 40.7358C85.0364 41.2008 85.1894 41.6806 85.3026 42.1705C85.4014 42.6603 85.4675 43.1561 85.5004 43.6546V43.7931L85.4213 43.6793C85.1566 43.3034 84.8821 42.9373 84.5976 42.5712C84.046 41.8588 83.5093 41.1291 82.97 40.3945C82.4308 39.6598 81.8718 38.9302 81.2707 38.24C81.1223 38.0669 80.9689 37.8962 80.8156 37.728C80.6622 37.5598 80.5014 37.3966 80.3431 37.2333C80.1848 37.0701 80.0216 36.9118 79.8484 36.7534C79.6753 36.5951 79.5244 36.4319 79.3537 36.2785C78.0353 35.0269 76.6526 33.8619 75.2402 32.7414C74.5377 32.1799 73.8278 31.6233 73.1204 31.0668L72.0593 30.2357C71.7006 29.9586 71.3469 29.6791 70.9783 29.4145C70.2486 28.8752 69.4942 28.3632 68.7324 27.8685C67.9705 27.3738 67.1889 26.8989 66.3924 26.4487C65.9942 26.2211 65.586 26.0109 65.1754 25.8081C64.761 25.6071 64.3366 25.4271 63.904 25.2688C63.4683 25.1144 63.024 24.9855 62.5733 24.883C62.1231 24.7839 61.6682 24.7079 61.2103 24.6554C60.7552 24.5985 60.3001 24.5639 59.8474 24.5367L59.1672 24.4996L58.4969 24.4476L57.1488 24.3833L56.4067 24.3388C56.34 24.2596 56.3004 24.2151 56.2311 24.1384C56.2311 24.0469 56.2311 23.9529 56.2311 23.8663C56.2311 23.7798 56.2163 23.6882 56.2039 23.6041L56.1841 23.478C56.1841 23.4359 56.1668 23.3964 56.1569 23.3543L56.1124 23.1589L56.0926 23.0971V23.0352C56.0902 23.0114 56.0902 22.9873 56.0926 22.9635C56.1586 22.9457 56.2254 22.9317 56.293 22.9214ZM54.4403 24.4476V24.4649L54.4254 24.4872H54.4131L54.4254 24.4699C54.4774 24.4105 54.4254 24.4674 54.4403 24.4476ZM50.9303 21.9741C50.9303 21.9741 50.9303 21.9741 50.9551 21.9741H50.9773H50.9625H50.9303ZM53.1565 24.5614C53.0032 24.5144 52.8548 24.4798 52.7088 24.4501C52.4169 24.3907 52.1325 24.3437 51.853 24.2893C51.5779 24.2381 51.3061 24.1703 51.0392 24.0865C50.796 24.0153 50.565 23.9077 50.354 23.7674C50.3333 23.753 50.3135 23.7373 50.2946 23.7204C50.2946 23.7056 50.2625 23.6932 50.2551 23.6783C50.2444 23.6649 50.2344 23.6509 50.2254 23.6363V23.6165V23.5992C50.2123 23.5447 50.2123 23.4879 50.2254 23.4335C50.2492 23.2329 50.3095 23.0384 50.4035 22.8596C50.5221 22.6384 50.6552 22.4252 50.8017 22.2214C50.866 22.1324 50.9328 22.0433 51.0021 21.9568C51.1083 21.9631 51.2136 21.9805 51.3162 22.0087C51.4378 22.0437 51.5576 22.0849 51.6749 22.1324C51.9207 22.235 52.1574 22.3583 52.3823 22.5009C52.8436 22.7943 53.2545 23.1601 53.5993 23.5844C53.7707 23.7962 53.9215 24.024 54.0495 24.2646C54.0915 24.3437 54.1311 24.4278 54.1682 24.5119H54.136C53.9273 24.5432 53.7303 24.6285 53.5647 24.7593L53.5003 24.7123L53.3767 24.6455C53.302 24.6103 53.2251 24.5797 53.1466 24.554L53.1565 24.5614ZM81.6096 51.5378C81.1551 51.6208 80.6938 51.6606 80.2318 51.6565C79.744 51.6509 79.2568 51.6187 78.7724 51.56C77.7648 51.4296 76.7673 51.2304 75.7869 50.9639C74.7975 50.7165 73.7932 50.3826 72.8063 50.0314C72.3116 49.8549 71.8169 49.6702 71.3222 49.4773C70.8274 49.2893 70.3327 49.0914 69.8529 48.8886C67.9013 48.0798 65.9645 47.1918 64.0895 46.1924C63.6196 45.9451 63.1545 45.6829 62.6994 45.4133C62.4694 45.2797 62.2443 45.1412 62.0167 45.0027L61.6828 44.7949C61.569 44.7232 61.4701 44.6514 61.3637 44.5822C60.9424 44.2923 60.5438 43.9706 60.1715 43.62L60.028 43.4889L59.892 43.3504C59.8004 43.2564 59.7089 43.1673 59.6199 43.0733C59.4467 42.8804 59.2662 42.6899 59.1029 42.4896C58.7643 42.0899 58.4488 41.6712 58.158 41.2355C57.8612 40.8026 57.594 40.3475 57.3368 39.8874C57.0795 39.4273 56.8421 38.9549 56.6269 38.475C56.4117 37.9952 56.2188 37.5005 56.0456 36.9909C55.7104 35.9942 55.4289 34.9802 55.2021 33.9534C55.0859 33.4587 54.9746 32.9393 54.888 32.447L54.8583 32.264L54.8311 32.0834C54.8311 32.0216 54.8163 31.9647 54.8088 31.9103V31.8237L54.7915 31.6852C54.7382 31.3478 54.6287 31.0217 54.4675 30.7205C54.1811 30.2129 53.833 29.7426 53.4311 29.3205C53.0618 28.9335 52.7212 28.5202 52.412 28.0837C52.2691 27.8843 52.1543 27.6663 52.0706 27.4356C52.0366 27.3368 52.0174 27.2334 52.0138 27.1289C52.0103 27.0565 52.0293 26.9848 52.0682 26.9236C52.1039 26.8785 52.1508 26.8435 52.2042 26.8222C52.2832 26.7855 52.3662 26.7581 52.4516 26.7406C52.667 26.695 52.8851 26.6636 53.1046 26.6466L53.2555 26.6293C53.299 26.7661 53.3493 26.9007 53.4064 27.0325C53.5181 27.2873 53.6453 27.5352 53.7873 27.7745C53.8565 27.8858 53.9258 28.0021 53.9975 28.1109L54.1781 28.3904C54.2325 28.4745 54.2845 28.5636 54.3364 28.6551C54.3883 28.7466 54.4428 28.8381 54.4947 28.9396C54.705 29.3254 54.9103 29.7435 55.1007 30.1763C55.2899 30.6206 55.4551 31.0747 55.5954 31.5368C55.8848 32.4693 56.1272 33.4414 56.4389 34.4209C56.7374 35.4218 57.1843 36.3723 57.7647 37.2407C58.3724 38.1079 59.0844 38.8971 59.8845 39.5906C59.981 39.6772 60.0849 39.7588 60.1863 39.8379C60.2877 39.9171 60.3891 40.0086 60.4955 40.0853C60.7033 40.2411 60.9234 40.4044 61.1213 40.5404C61.3192 40.6765 61.527 40.8199 61.7298 40.956L62.3457 41.3616C62.7588 41.6288 63.1743 41.8885 63.5825 42.1457C63.9906 42.403 64.4185 42.6553 64.839 42.9076L69.885 45.8758C70.7211 46.3705 71.5596 46.8652 72.3882 47.3822C73.2169 47.8992 74.0381 48.426 74.884 48.9331C75.3045 49.1805 75.7325 49.4278 76.1727 49.6752C76.6171 49.918 77.0746 50.136 77.5431 50.3282C77.7904 50.4247 78.0378 50.5162 78.2851 50.5929C78.4184 50.6356 78.5538 50.6711 78.6908 50.6992L78.8739 50.7388L79.042 50.7734C79.4947 50.8699 79.9523 50.9837 80.4149 51.0999C80.8774 51.2162 81.3647 51.3473 81.852 51.4685L81.6096 51.5378ZM83.905 50.3579L83.8654 50.39L83.6057 50.3232C83.158 50.2045 82.7029 50.0611 82.2403 49.9275C81.7778 49.7939 81.3226 49.6529 80.8279 49.5243C80.3332 49.3957 79.8707 49.2769 79.3735 49.178L79.1855 49.1434L79.0124 49.1087L78.8664 49.0766C78.8154 49.0683 78.765 49.0567 78.7155 49.042C78.5102 48.9925 78.2975 48.9232 78.0823 48.8564C77.6519 48.7155 77.2141 48.5473 76.7763 48.3766C76.5586 48.2875 76.341 48.1985 76.1208 48.1045C75.9007 48.0105 75.683 47.9165 75.4653 47.82C74.5922 47.4317 73.7338 47.0062 72.8904 46.5338C72.0469 46.0614 71.2381 45.5444 70.4391 45.0002C69.6401 44.456 68.8585 43.8945 68.0917 43.3083C67.3249 42.7221 66.573 42.1161 65.8309 41.5002C65.0888 40.8842 64.3468 40.2634 63.6295 39.6326L62.5436 38.6952C62.3531 38.5369 62.2022 38.3909 62.034 38.24C61.9499 38.1683 61.8733 38.0867 61.7867 38.0125C61.7001 37.9383 61.6234 37.8616 61.5393 37.78C61.2301 37.4633 60.9308 37.1418 60.6513 36.7905C60.5771 36.7089 60.5103 36.6199 60.4411 36.5432C60.3718 36.4665 60.3026 36.375 60.2382 36.2958L59.845 35.7665C59.7782 35.6775 59.7114 35.5909 59.6471 35.4994L59.4492 35.2297L59.0559 34.6856C58.9199 34.505 58.7912 34.317 58.6552 34.1315C58.5191 33.946 58.3955 33.7555 58.2668 33.5601C58.0195 33.1742 57.7721 32.7735 57.5396 32.3555C57.3071 31.9375 57.1142 31.5046 56.9287 31.0594C56.7431 30.6141 56.5848 30.159 56.434 29.6866C56.2944 29.1976 56.1292 28.7162 55.9392 28.2445C55.8898 28.1233 55.8255 27.9971 55.7661 27.8809C55.7389 27.819 55.6993 27.7597 55.6672 27.6978C55.635 27.636 55.6004 27.5766 55.5583 27.5173L55.4396 27.3392L55.4099 27.2947L55.3827 27.26L55.3357 27.1932C55.2689 27.1042 55.2096 27.0127 55.1477 26.9236C55.0408 26.745 54.9433 26.5609 54.8558 26.372C54.8361 26.3374 54.8187 26.3003 54.8014 26.2657L54.8905 26.2236C54.9548 26.1915 55.0216 26.1568 55.0859 26.1173C55.2763 26.2014 55.4718 26.3003 55.6672 26.4091L55.724 26.3275L56.382 26.8222C57.0416 27.3169 57.7062 27.8067 58.3757 28.2915L60.399 29.7261L60.8937 30.0922L61.3884 30.4682C61.7174 30.7156 62.039 30.9753 62.3581 31.2375L64.2775 32.8082L65.2447 33.5997L66.197 34.3937C67.4634 35.4573 68.7225 36.5284 69.9691 37.6093C70.5925 38.1485 71.2059 38.7001 71.8317 39.2468L72.7568 40.0705L73.2194 40.4835L73.4494 40.6888L73.6522 40.8842C73.9243 41.1539 74.1939 41.4581 74.4586 41.7648C74.5897 41.9207 74.7208 42.079 74.8494 42.2373L75.2353 42.732C75.7498 43.38 76.2544 44.0479 76.7961 44.6861C77.8921 45.9826 79.1375 47.1449 80.5064 48.149C80.8576 48.3964 81.2113 48.6437 81.5848 48.8911L81.8644 49.0642L82.1538 49.2275C82.3417 49.3388 82.5446 49.4377 82.7425 49.5391C83.1511 49.7421 83.5745 49.9141 84.0089 50.0536L84.2414 50.1204C84.1177 50.1946 84.0114 50.2787 83.905 50.3579ZM85.2284 48.9208C82.7326 46.2541 80.0557 43.7631 77.2166 41.4655C74.3968 39.1404 71.4483 36.9489 68.5122 34.7598C65.5761 32.5707 62.6252 30.3841 59.7806 28.0639C59.0699 27.4851 58.3666 26.8981 57.6707 26.3028C57.5223 26.1766 56.7184 25.6275 56.8075 25.4346C56.8965 25.2416 57.8785 25.2243 58.0863 25.2045C59.9169 25.0342 61.7627 25.2637 63.4959 25.8773C64.0664 26.0792 64.6212 26.3231 65.1556 26.607C67.7182 27.9749 69.7144 30.1788 71.7624 32.2392C75.7745 36.2761 80.1725 39.9072 84.046 44.0949C84.6397 44.7355 85.2308 45.4083 85.5549 46.2122L85.6043 46.3384C85.916 47.2041 85.8591 48.2554 85.2284 48.9208Z" fill="#FFF5EA"/>
<path d="M21.7106 77.1463H22.4378C23.442 77.1463 23.5435 76.8445 23.5435 73.9579V66.2503C23.5435 65.7309 23.2615 65.5083 22.9647 65.5083C22.6678 65.5083 22.3636 65.7878 22.3636 66.2503V67.027H22.1632V66.2503C22.1632 65.3821 22.841 64.9443 23.5682 64.9443C24.2212 64.9443 24.847 65.3005 24.847 66.0475V66.9528C24.847 67.2793 24.8223 68.9316 24.7975 69.1345H24.9484C25.0261 68.6741 25.1436 68.2214 25.2997 67.7815C25.9007 65.998 27.3824 64.8429 29.1139 64.8429C31.3722 64.8429 32.6263 66.0995 32.6263 68.0065V73.943C32.6263 76.8296 32.7277 77.1314 33.7319 77.1314H34.2835V77.3318H29.1633V77.1314H29.8905C30.8948 77.1314 30.9962 76.8296 30.9962 73.943V68.5878C30.9962 66.5298 30.3927 65.4266 28.9382 65.4266C26.806 65.4266 25.1735 67.3585 25.1735 70.3193V73.9579C25.1735 76.8445 25.2997 77.1463 26.3039 77.1463H27.046V77.3466H21.7106V77.1463Z" fill="#FFF5EA"/>
<path d="M51.0468 66.933C50.1977 66.8105 49.4104 66.4186 48.8008 65.815C48.2555 65.2685 47.8919 64.5671 47.7595 63.8065C47.6295 62.9952 47.72 62.164 48.0217 61.3997C48.3737 60.4938 48.9478 59.6908 49.6913 59.0647C50.6258 58.2798 51.7035 57.6834 52.8649 57.3085C54.1841 56.8484 55.7861 56.6184 57.6709 56.6184C59.343 56.6184 60.7571 56.9738 61.913 57.6845C63.0456 58.3742 63.979 59.3469 64.6216 60.5068C65.2913 61.7437 65.7115 63.1002 65.8583 64.4991C66.033 66.0235 65.9905 67.5651 65.7322 69.0776C65.4703 70.665 64.9961 72.21 64.3223 73.6709C63.658 75.1251 62.7774 76.4703 61.7102 77.6608C60.6621 78.8267 59.4033 79.7842 57.9999 80.4831C56.524 81.2057 54.8988 81.5709 53.2557 81.5491C52.7026 81.5532 52.1511 81.4901 51.6133 81.3612C51.1218 81.2417 50.6461 81.0649 50.1959 80.8343C49.7649 80.6116 49.3572 80.3465 48.9789 80.0428C48.6101 79.7499 48.2621 79.4317 47.9376 79.0905C47.2108 79.5292 46.4289 79.8694 45.6125 80.1021C44.6864 80.3635 43.7276 80.4901 42.7654 80.4781C41.5436 80.5098 40.3277 80.2979 39.1887 79.8548C38.2695 79.4891 37.4456 78.919 36.7795 78.1876C36.176 77.5069 35.7308 76.7011 35.4759 75.8279C35.2182 74.9539 35.1342 74.038 35.2286 73.1317C35.3219 72.1968 35.5728 71.2843 35.9706 70.4331C36.8259 68.5992 38.347 67.1595 40.2251 66.4062C41.31 65.9725 42.4704 65.7589 43.6386 65.7779C44.3912 65.7533 45.1382 65.9156 45.8128 66.2503C46.3404 66.5069 46.7797 66.9146 47.0748 67.4216C47.37 67.9286 47.5075 68.5119 47.4701 69.0974C47.4369 69.7289 47.2565 70.3439 46.9432 70.8932C46.5778 71.5318 46.0924 72.0937 45.5135 72.548C44.8164 73.0948 44.0189 73.4998 43.1661 73.7402C43.6209 73.8767 44.0422 74.1067 44.4029 74.4155C44.7974 74.7515 45.1548 75.1288 45.469 75.5409C45.8054 75.9738 46.1467 76.4364 46.498 76.9286C46.8492 77.4193 47.2265 77.8908 47.6284 78.341C48.4692 77.5414 49.1655 76.6025 49.6864 75.5657C50.2754 74.4188 50.799 73.2395 51.2546 72.0335C51.7328 70.7802 52.2052 69.4964 52.6719 68.1822C53.1259 66.9022 53.6621 65.6529 54.2772 64.4422C54.8561 63.299 55.564 62.2259 56.3872 61.2439C57.196 60.2875 58.2108 59.5264 59.3554 59.0177L59.4049 59.2651C58.5251 59.8284 57.7904 60.591 57.2603 61.4913C56.6305 62.5343 56.0926 63.63 55.6525 64.7662C55.1776 65.9799 54.7175 67.2637 54.2723 68.6175C53.8271 69.9714 53.3324 71.2906 52.7882 72.5752C52.2608 73.8299 51.6183 75.0331 50.8687 76.1692C50.159 77.2496 49.2448 78.1807 48.1775 78.9099C48.7282 79.4357 49.3595 79.8699 50.0475 80.1961C50.8557 80.5578 51.7349 80.7328 52.62 80.7081C53.7262 80.7126 54.8213 80.4868 55.8356 80.0452C56.8686 79.5946 57.8223 78.9808 58.6603 78.2272C59.5428 77.435 60.326 76.5388 60.9929 75.5582C61.6893 74.5401 62.2849 73.4565 62.7714 72.3229C63.263 71.1812 63.6528 69.9984 63.9364 68.7882C64.2165 67.6321 64.3748 66.4499 64.4088 65.2609C64.4393 64.1737 64.3296 63.0872 64.0823 62.028C63.8643 61.0708 63.4637 60.1646 62.9025 59.3591C62.3588 58.5903 61.6352 57.9661 60.795 57.541C59.8217 57.073 58.7505 56.8448 57.6709 56.8757C56.3318 56.8531 55 57.0787 53.743 57.541C52.6934 57.929 51.7179 58.4937 50.8588 59.2107C50.1251 59.8228 49.5192 60.5733 49.0754 61.4195C48.691 62.1249 48.4806 62.9119 48.462 63.715C48.4496 64.4051 48.6749 65.0784 49.1001 65.6221C49.5272 66.1662 50.1868 66.5216 51.079 66.6882L51.0468 66.933ZM42.5898 73.6314C43.3418 73.4508 44.0473 73.1137 44.6601 72.642C45.2067 72.224 45.667 71.704 46.0156 71.1108C46.3277 70.5787 46.5319 69.9904 46.6167 69.3794C46.6977 68.8254 46.639 68.26 46.446 67.7345C46.2542 67.2286 45.9081 66.7959 45.4566 66.4977C44.9166 66.1603 44.2872 65.9939 43.6509 66.0203C42.6704 66.0043 41.6994 66.2151 40.8138 66.6362C40.0047 67.0264 39.2802 67.5718 38.6816 68.2415C38.0908 68.915 37.6213 69.6858 37.294 70.5197C36.9548 71.3532 36.747 72.2344 36.6781 73.1317C36.6104 74.0075 36.6831 74.8884 36.8933 75.7413C37.0864 76.562 37.445 77.3346 37.947 78.012C38.4593 78.6856 39.1205 79.2317 39.8788 79.6074C40.7784 80.0392 41.7679 80.2504 42.7654 80.2233C43.6602 80.2396 44.5499 80.086 45.3874 79.7707C46.1374 79.4756 46.8298 79.0511 47.433 78.5166C46.9743 77.9948 46.5425 77.4499 46.1393 76.8841C45.7452 76.3333 45.361 75.8386 44.9867 75.3999C44.6461 74.9912 44.2583 74.6242 43.8315 74.3066C43.4663 74.032 43.022 73.8828 42.5651 73.8812L42.5898 73.6314Z" fill="#FFF5EA"/>
<path d="M72.7521 71.3977H74.5108V67.9818C74.5108 66.1736 73.6327 65.2461 72.0249 65.2461C69.9669 65.2461 68.9132 66.4828 68.8093 68.1055L68.7079 69.367H68.3368L68.5619 65.0235C68.7594 65.0725 68.962 65.0983 69.1655 65.1001C69.8432 65.1001 70.793 64.8528 72.0001 64.8528C74.721 64.8528 76.1903 66.0574 76.1903 68.2663V76.1816C76.1903 76.7084 76.4673 76.884 76.7691 76.884C77.0709 76.884 77.3702 76.6367 77.3702 76.1568V75.8303H77.5705V76.1445C77.5673 76.4937 77.4255 76.8274 77.1765 77.0722C76.9275 77.3171 76.5915 77.4531 76.2422 77.4505C75.9242 77.4358 75.624 77.2991 75.4043 77.0687C75.1845 76.8384 75.062 76.5321 75.0624 76.2137L74.9362 74.131H74.7358C74.1843 76.6911 72.4775 77.5197 70.9711 77.5197C68.7128 77.5197 67.3573 76.466 67.3573 74.9102C67.3573 72.6296 69.2397 71.3977 72.7521 71.3977ZM71.2234 76.9459C72.7521 76.9459 74.5108 75.6646 74.5108 72.6296V71.7762H72.8535C70.3948 71.7762 69.0393 72.8794 69.0393 74.9126C69.0393 76.1667 70.0188 76.9459 71.2234 76.9459Z" fill="#FFF5EA"/>
<path d="M78.4485 77.1463H79.1905C80.18 77.1463 80.3185 76.8445 80.3185 73.9826V61.009C80.3279 60.9245 80.3182 60.839 80.2901 60.7588C80.262 60.6785 80.2162 60.6057 80.1561 60.5456C80.096 60.4855 80.0231 60.4397 79.9429 60.4115C79.8627 60.3834 79.7771 60.3737 79.6927 60.3832H78.7033V60.2075H79.9079C80.7612 60.2075 81.7902 59.9305 81.7902 59.0771V59.0029H81.9411V73.9826C81.9411 76.8445 82.0648 77.1463 83.069 77.1463H83.8111V77.3467H78.4485V77.1463Z" fill="#FFF5EA"/>
<path d="M91.3727 64.8479C94.3088 64.8479 96.2406 66.4804 96.2406 69.0405C96.2406 69.5674 95.9661 69.9186 95.5381 69.9186H86.8659C86.8082 70.3507 86.7801 70.7862 86.7818 71.2222C86.7818 74.4377 88.7384 76.9113 91.7487 76.9113C93.3317 76.9113 95.0632 76.3349 96.0922 74.9325L96.3915 75.1575C95.2883 76.6417 93.5074 77.5173 91.2985 77.5173C87.5338 77.5173 84.9984 74.9325 84.9984 71.1183C85.0147 69.4423 85.6949 67.8411 86.8897 66.6658C88.0846 65.4904 89.6967 64.8366 91.3727 64.8479ZM94.1579 69.3917C94.2069 69.3942 94.2558 69.386 94.3012 69.3677C94.3466 69.3493 94.3875 69.3212 94.421 69.2854C94.4544 69.2496 94.4796 69.2069 94.4949 69.1603C94.5101 69.1138 94.515 69.0644 94.5091 69.0158C94.5091 66.6807 93.2056 65.251 91.2738 65.251C89.013 65.251 87.4002 66.9108 86.9253 69.5426L94.1579 69.3917Z" fill="#FFF5EA"/>
<path d="M97.47 77.1463H98.212C99.2163 77.1463 99.3152 76.8445 99.3152 73.9579V66.2503C99.3152 65.7309 99.0332 65.5083 98.7364 65.5083C98.4396 65.5083 98.1354 65.7878 98.1354 66.2503V67.027H97.935V66.2503C97.935 65.3821 98.6127 64.9443 99.34 64.9443C99.993 64.9443 100.545 65.3005 100.545 66.0475V66.9528C100.545 67.2793 100.52 68.6596 100.495 68.8599H100.671C100.734 68.3709 100.852 67.8905 101.022 67.4277C101.65 65.7977 102.679 64.8429 104.334 64.8429C106.518 64.8429 107.094 66.0475 107.094 67.6034V68.8599H107.196C107.269 68.1951 107.435 67.5438 107.691 66.9256C108.368 65.6468 109.271 64.8429 110.802 64.8429C112.608 64.8429 113.914 65.8323 113.914 67.6306V73.9529C113.914 76.8395 114.04 77.1413 115.042 77.1413H115.596V77.3417H110.948V77.1413H111.149C112.153 77.1413 112.277 76.8395 112.277 73.9529V68.0362C112.277 66.3295 111.549 65.4266 110.597 65.4266C108.687 65.4266 107.433 67.3337 107.433 70.0447V73.9579C107.433 76.8445 107.56 77.1463 108.564 77.1463H109.091V77.3466H104.473V77.1463H104.673C105.677 77.1463 105.803 76.8445 105.803 73.9579V68.0362C105.803 66.3295 105.076 65.4266 104.121 65.4266C102.214 65.4266 100.935 67.3337 100.935 70.0447V73.9579C100.935 76.8445 101.059 77.1463 102.063 77.1463H102.805V77.3466H97.47V77.1463Z" fill="#FFF5EA"/>
<path d="M23.8872 86.6891C23.8209 86.6869 23.7553 86.703 23.6977 86.7357C23.6401 86.7685 23.5926 86.8166 23.5607 86.8746C23.5268 86.9325 23.5081 86.998 23.5063 87.0651V90.8076C23.5155 91.1192 23.4038 91.4224 23.1946 91.6535C23.0996 91.7647 22.981 91.8534 22.8476 91.9133C22.7141 91.9732 22.5691 92.0027 22.4229 91.9998V91.9454C22.6349 91.8635 22.8105 91.7081 22.9176 91.5076C23.0507 91.2911 23.121 91.0419 23.1204 90.7878V87.0651C23.1175 86.9644 23.0759 86.8687 23.0041 86.798C22.9694 86.7632 22.9281 86.7357 22.8827 86.717C22.8373 86.6983 22.7886 86.6888 22.7395 86.6891H22.6578V86.6298H23.9663V86.6891H23.8872Z" fill="#FFF5EA"/>
<path d="M25.4754 87.3768C25.7903 87.2222 26.1363 87.1418 26.4871 87.1418C26.8378 87.1418 27.1839 87.2222 27.4988 87.3768C27.8014 87.5278 28.0577 87.7577 28.2408 88.0421C28.4172 88.3362 28.5104 88.6726 28.5104 89.0155C28.5104 89.3583 28.4172 89.6948 28.2408 89.9888C28.0585 90.2739 27.802 90.5039 27.4988 90.6542C27.2083 90.8077 26.8849 90.8883 26.5563 90.8892C26.2661 90.8951 25.977 90.8491 25.703 90.7531C25.4663 90.6671 25.2481 90.537 25.0599 90.3697C24.8763 90.2039 24.7304 90.0006 24.6319 89.7736C24.5206 89.5127 24.4666 89.231 24.4736 88.9474C24.4746 88.626 24.5682 88.3117 24.7432 88.0421C24.9236 87.759 25.1764 87.5293 25.4754 87.3768ZM25.3641 90.2436C25.5067 90.3974 25.6803 90.5193 25.8734 90.6012C26.0666 90.683 26.2749 90.723 26.4846 90.7185C26.6943 90.723 26.9026 90.683 27.0958 90.6012C27.2889 90.5193 27.4625 90.3974 27.6051 90.2436C27.8986 89.9046 28.0601 89.4712 28.0601 89.0229C28.0601 88.5745 27.8986 88.1412 27.6051 87.8022C27.4623 87.6488 27.2886 87.5274 27.0955 87.4459C26.9023 87.3645 26.6942 87.3249 26.4846 87.3298C26.2751 87.3249 26.0669 87.3645 25.8738 87.4459C25.6806 87.5274 25.5069 87.6488 25.3641 87.8022C25.0735 88.1425 24.9139 88.5754 24.9139 89.0229C24.9139 89.4704 25.0735 89.9032 25.3641 90.2436Z" fill="#FFF5EA"/>
<path d="M29.6259 90.3796C29.2825 90.0073 29.0919 89.5194 29.0919 89.013C29.0919 88.5066 29.2825 88.0187 29.6259 87.6464C30.0021 87.3066 30.4972 87.1289 31.0036 87.1517C31.5066 87.136 32.0041 87.2602 32.4407 87.5103L32.5718 88.3563H32.5174C32.458 88.0443 32.2809 87.767 32.0227 87.5821C31.7161 87.3979 31.3606 87.3116 31.0036 87.3347C30.805 87.3261 30.6069 87.3605 30.4229 87.4357C30.2389 87.5108 30.0733 87.6249 29.9375 87.77C29.6679 88.126 29.5219 88.5603 29.5219 89.0068C29.5219 89.4534 29.6679 89.8877 29.9375 90.2436C30.0856 90.3988 30.2655 90.5201 30.4649 90.5991C30.6643 90.6781 30.8785 90.7129 31.0927 90.7012C31.3278 90.7042 31.5612 90.6598 31.7788 90.5705C31.9964 90.4813 32.1938 90.349 32.3591 90.1817V89.3877C32.3619 89.3558 32.357 89.3237 32.345 89.2941C32.3329 89.2644 32.314 89.238 32.2899 89.2171C32.231 89.1726 32.1582 89.1507 32.0845 89.1552H32.0004V89.0959H33.0913V89.1552H33.0096C32.8291 89.1552 32.74 89.2344 32.74 89.4026V90.1174C32.5509 90.3442 32.3157 90.528 32.0499 90.6567C31.7366 90.8151 31.3892 90.8941 31.0382 90.8867C30.5195 90.9073 30.0131 90.7255 29.6259 90.3796Z" fill="#FFF5EA"/>
<path d="M34.7784 87.2754C34.7137 87.272 34.6492 87.285 34.5908 87.3131C34.5325 87.3412 34.4821 87.3835 34.4444 87.4362C34.4122 87.4837 34.3941 87.5395 34.3925 87.597V90.7977C34.3936 90.9374 34.365 91.0758 34.3087 91.2037C34.2525 91.3316 34.1697 91.4461 34.066 91.5398C33.9656 91.6407 33.8461 91.7204 33.7144 91.7744C33.5827 91.8283 33.4415 91.8554 33.2992 91.8539V91.7945C33.502 91.7251 33.6761 91.5902 33.7939 91.4111C33.9274 91.2325 34.0003 91.0158 34.0017 90.7928V87.5772C33.9981 87.5351 33.9854 87.4942 33.9645 87.4575C33.9435 87.4208 33.9149 87.389 33.8805 87.3644C33.8037 87.3064 33.7096 87.2759 33.6133 87.2779H33.5416V87.2185H34.855V87.2754H34.7784Z" fill="#FFF5EA"/>
<path d="M39.0054 90.7383H39.0524V90.8002H37.8157V90.7383H37.8651C37.898 90.7404 37.9309 90.7345 37.9611 90.7212C37.9912 90.7078 38.0177 90.6874 38.0383 90.6617C38.0734 90.6208 38.0943 90.5695 38.0976 90.5157C38.0971 90.4701 38.0887 90.4249 38.0729 90.3821L37.7439 89.5881H36.2351L35.9061 90.3624C35.8875 90.4088 35.8774 90.4583 35.8764 90.5083C35.8796 90.5636 35.9004 90.6165 35.9358 90.6592C35.9568 90.6865 35.9844 90.708 36.0159 90.7219C36.0475 90.7357 36.082 90.7414 36.1163 90.7383H36.1633V90.8002H35.0354V90.7383H35.0824C35.1717 90.7349 35.2579 90.7048 35.3298 90.6518C35.4229 90.5861 35.4964 90.4963 35.5425 90.392C36.4132 88.5319 36.8666 87.5574 36.9029 87.4683C36.9527 87.3621 36.9884 87.2498 37.0093 87.1344H37.0637L38.5478 90.392C38.5814 90.4885 38.6427 90.5729 38.7242 90.6345C38.8056 90.6961 38.9035 90.7323 39.0054 90.7383ZM36.3241 89.4076H37.6846L37.0167 87.7701L36.3241 89.4076Z" fill="#FFF5EA"/>
<path d="M38.6047 87.1888C38.6969 87.1675 38.7779 87.1129 38.8323 87.0354C38.8638 86.9888 38.8842 86.9354 38.8916 86.8796C38.8876 86.7699 38.8426 86.6658 38.7655 86.5877C38.7205 86.5459 38.6858 86.4943 38.6641 86.4368C38.645 86.3832 38.645 86.3247 38.6641 86.2711C38.681 86.2325 38.7098 86.2002 38.7462 86.1789C38.7827 86.1576 38.8249 86.1483 38.8669 86.1524C38.9204 86.1515 38.9729 86.1672 39.0172 86.1973C39.0615 86.2274 39.0954 86.2705 39.1142 86.3206C39.1593 86.4237 39.1837 86.5346 39.186 86.6471C39.1834 86.7579 39.1481 86.8655 39.0846 86.9563C39.0338 87.0423 38.9614 87.1135 38.8746 87.163C38.7879 87.2124 38.6897 87.2384 38.5898 87.2383L38.6047 87.1888Z" fill="#FFF5EA"/>
<path d="M39.8465 90.6097C39.8311 90.5132 39.8253 90.4155 39.8292 90.3178C39.8295 90.1654 39.8555 90.014 39.9059 89.8701H39.9776C39.9752 89.9055 39.9752 89.9411 39.9776 89.9765C39.9741 90.0745 39.9909 90.1721 40.0271 90.2633C40.0633 90.3544 40.118 90.437 40.1879 90.5058C40.2676 90.5772 40.3607 90.632 40.4617 90.6673C40.5627 90.7025 40.6697 90.7174 40.7766 90.7111C40.9962 90.7242 41.2134 90.6594 41.39 90.5281C41.4612 90.4725 41.5184 90.4011 41.5571 90.3195C41.5957 90.2379 41.6147 90.1484 41.6126 90.0581C41.6146 89.9672 41.5963 89.8769 41.5591 89.794C41.5218 89.711 41.4666 89.6373 41.3974 89.5783L40.2027 88.6581C40.1084 88.5777 40.0335 88.4769 39.9838 88.3634C39.9341 88.2498 39.9109 88.1265 39.9158 88.0026C39.9158 87.8497 39.9605 87.7001 40.0444 87.5722C40.1345 87.438 40.2582 87.3297 40.4031 87.2581C40.5713 87.1778 40.7559 87.138 40.9423 87.1418C41.1268 87.139 41.311 87.1573 41.4914 87.1962H41.6893V87.8468H41.6225C41.6268 87.7729 41.6133 87.6991 41.5832 87.6315C41.5531 87.564 41.5072 87.5046 41.4494 87.4584C41.3047 87.3582 41.1302 87.3102 40.9547 87.3224C40.764 87.3149 40.5765 87.3725 40.4229 87.4856C40.357 87.5345 40.3038 87.5984 40.2677 87.6719C40.2315 87.7455 40.2135 87.8267 40.2151 87.9086C40.216 87.9966 40.2376 88.0831 40.2779 88.1613C40.3183 88.2395 40.3764 88.3071 40.4476 88.3588L41.6522 89.2913C41.7436 89.3681 41.816 89.465 41.8636 89.5744C41.9113 89.6839 41.9329 89.8029 41.9268 89.9221C41.9288 90.0521 41.9024 90.181 41.8494 90.2998C41.7964 90.4186 41.7182 90.5244 41.62 90.6097C41.4177 90.7946 41.152 90.8947 40.878 90.8892C40.6812 90.8898 40.4851 90.8657 40.2942 90.8175C40.1304 90.7854 39.9768 90.7141 39.8465 90.6097Z" fill="#FFF5EA"/>
<path d="M44.7146 90.2882C44.396 89.9845 44.1773 89.5912 44.0873 89.1604C43.9973 88.7296 44.0403 88.2816 44.2106 87.8758C44.3809 87.47 44.6705 87.1255 45.041 86.888C45.4115 86.6504 45.8454 86.5311 46.2853 86.5457C46.7868 86.5368 47.2795 86.6781 47.7001 86.9514L47.8189 87.7924H47.7669C47.6931 87.4721 47.5037 87.1903 47.2351 87.0008C46.9546 86.8129 46.6229 86.7161 46.2853 86.7238C46.0515 86.7162 45.8191 86.7612 45.6051 86.8554C45.391 86.9495 45.2008 87.0905 45.0485 87.268C44.7209 87.6732 44.5537 88.1846 44.5785 88.7051C44.5538 89.2258 44.7181 89.738 45.0411 90.1472C45.1907 90.3253 45.3778 90.4682 45.589 90.5657C45.8002 90.6632 46.0304 90.7128 46.263 90.7111C46.6661 90.7249 47.0611 90.5962 47.3786 90.3475C47.7353 90.0134 47.9459 89.5521 47.9648 89.0638H48.0118L47.9401 90.0012C47.7686 90.2886 47.5215 90.5233 47.2258 90.6799C46.9301 90.8365 46.597 90.9089 46.263 90.8892C45.9775 90.9006 45.6927 90.8531 45.4263 90.7497C45.1599 90.6463 44.9176 90.4892 44.7146 90.2882Z" fill="#FFF5EA"/>
<path d="M51.2692 90.7383C51.3145 90.7404 51.3598 90.7335 51.4023 90.7177C51.4448 90.702 51.4837 90.6779 51.5166 90.6467C51.549 90.619 51.5754 90.585 51.5941 90.5467C51.6128 90.5084 51.6235 90.4667 51.6254 90.4241V89.1305H49.4141V90.4315C49.416 90.4741 49.4267 90.5158 49.4454 90.5541C49.4642 90.5924 49.4905 90.6265 49.5229 90.6542C49.5559 90.6853 49.5948 90.7094 49.6373 90.7252C49.6798 90.7409 49.725 90.7479 49.7703 90.7457H49.842V90.8075H48.625V90.7383H48.6968C48.7422 90.7404 48.7877 90.7332 48.8302 90.717C48.8728 90.7008 48.9116 90.6761 48.9441 90.6443C49.0067 90.5846 49.0439 90.5031 49.048 90.4167V87.6068C49.046 87.5641 49.0356 87.5222 49.0173 87.4836C48.9991 87.445 48.9733 87.4103 48.9416 87.3817C48.9089 87.3499 48.8702 87.325 48.8277 87.3084C48.7852 87.2918 48.7399 87.2839 48.6943 87.2852H48.6226V87.2258H49.8395V87.2753H49.7678C49.6766 87.2723 49.5877 87.3051 49.5205 87.3668C49.488 87.395 49.4616 87.4295 49.4429 87.4682C49.4242 87.5069 49.4135 87.549 49.4116 87.5919V88.94H51.6155V87.5969C51.6173 87.5594 51.6112 87.522 51.5976 87.487C51.5839 87.4521 51.5631 87.4204 51.5364 87.394C51.5019 87.3576 51.4605 87.3284 51.4147 87.308C51.3688 87.2876 51.3194 87.2765 51.2692 87.2753H51.1975V87.2159H52.4145V87.2753H52.3428C52.2518 87.2713 52.1629 87.3033 52.0954 87.3643C52.0628 87.3914 52.0363 87.4249 52.0176 87.4629C51.9988 87.5008 51.9883 87.5422 51.9866 87.5845V90.4216C51.9855 90.4943 52.013 90.5645 52.0632 90.6171C52.1351 90.689 52.2313 90.7314 52.3329 90.7358H52.4046V90.7976H51.1876V90.7383H51.2692Z" fill="#FFF5EA"/>
<path d="M53.9482 87.3768C54.263 87.2222 54.6091 87.1418 54.9599 87.1418C55.3106 87.1418 55.6567 87.2222 55.9715 87.3768C56.2749 87.5268 56.5315 87.7569 56.7136 88.0421C56.8915 88.3356 56.9856 88.6723 56.9856 89.0155C56.9856 89.3587 56.8915 89.6953 56.7136 89.9888C56.5322 90.2746 56.2754 90.5049 55.9715 90.6542C55.6811 90.8077 55.3577 90.8883 55.0291 90.8892C54.7388 90.8951 54.4498 90.8491 54.1758 90.7531C53.9389 90.6674 53.7207 90.5373 53.5326 90.3697C53.349 90.2039 53.2031 90.0006 53.1047 89.7736C52.9934 89.5127 52.9394 89.231 52.9464 88.9474C52.9472 88.6256 53.0417 88.311 53.2185 88.0421C53.3972 87.7586 53.6494 87.5286 53.9482 87.3768ZM53.8369 90.2436C53.9822 90.3939 54.1563 90.5135 54.3488 90.5952C54.5413 90.6768 54.7483 90.7189 54.9574 90.7189C55.1665 90.7189 55.3735 90.6768 55.566 90.5952C55.7585 90.5135 55.9326 90.3939 56.0779 90.2436C56.3714 89.9046 56.5329 89.4712 56.5329 89.0229C56.5329 88.5745 56.3714 88.1412 56.0779 87.8022C55.9321 87.6528 55.7578 87.534 55.5654 87.4529C55.3729 87.3718 55.1662 87.3301 54.9574 87.3301C54.7486 87.3301 54.5419 87.3718 54.3494 87.4529C54.157 87.534 53.9827 87.6528 53.8369 87.8022C53.5463 88.1425 53.3866 88.5754 53.3866 89.0229C53.3866 89.4704 53.5463 89.9032 53.8369 90.2436Z" fill="#FFF5EA"/>
<path d="M58.0936 90.3821C57.7531 90.0074 57.5645 89.5193 57.5645 89.013C57.5645 88.5067 57.7531 88.0186 58.0936 87.6439C58.4897 87.296 59.007 87.1183 59.5332 87.1492C59.7836 87.1502 60.0329 87.1826 60.2753 87.2457C60.5041 87.2996 60.7235 87.388 60.9258 87.5079L61.0569 88.3538H61.0025C60.8376 87.6711 60.3429 87.3298 59.5184 87.3298C59.3096 87.3193 59.101 87.3544 58.9071 87.4325C58.7132 87.5107 58.5386 87.6301 58.3954 87.7824C58.1065 88.1276 57.9597 88.5698 57.9848 89.0192C57.9774 89.3263 58.0409 89.631 58.1703 89.9097C58.285 90.156 58.4723 90.3614 58.7071 90.4984C58.955 90.6412 59.2372 90.7138 59.5233 90.7086C59.8019 90.7145 60.0791 90.6666 60.3396 90.5676C60.5734 90.473 60.7746 90.3123 60.9184 90.1051C61.0744 89.8673 61.1601 89.5904 61.1657 89.3061H61.2177L61.1534 90.1224C60.987 90.3712 60.7526 90.567 60.4781 90.6864C60.175 90.826 59.8446 90.8962 59.511 90.8917C58.9905 90.911 58.4826 90.7285 58.0936 90.3821Z" fill="#FFF5EA"/>
<path d="M62.8948 87.3768C63.2096 87.2222 63.5557 87.1418 63.9065 87.1418C64.2572 87.1418 64.6033 87.2222 64.9181 87.3768C65.2165 87.5294 65.4684 87.7591 65.6478 88.0421C65.8258 88.3356 65.9198 88.6723 65.9198 89.0155C65.9198 89.3587 65.8258 89.6953 65.6478 89.9888C65.4692 90.2724 65.217 90.5024 64.9181 90.6542C64.6269 90.808 64.3026 90.8886 63.9732 90.8892C63.683 90.8947 63.394 90.8486 63.1199 90.7531C62.8839 90.6671 62.6665 90.537 62.4792 90.3697C62.2959 90.2031 62.1493 90 62.0488 89.7736C61.9388 89.5123 61.8849 89.2309 61.8905 88.9474C61.8924 88.6258 61.9869 88.3115 62.1626 88.0421C62.3423 87.7585 62.5953 87.5286 62.8948 87.3768ZM62.7835 90.2436C62.9288 90.3939 63.1029 90.5135 63.2954 90.5952C63.4879 90.6768 63.6949 90.7189 63.904 90.7189C64.1131 90.7189 64.3201 90.6768 64.5126 90.5952C64.7051 90.5135 64.8792 90.3939 65.0245 90.2436C65.3165 89.9039 65.4771 89.4708 65.4771 89.0229C65.4771 88.575 65.3165 88.1419 65.0245 87.8022C64.8786 87.6528 64.7044 87.534 64.5119 87.4529C64.3195 87.3718 64.1128 87.3301 63.904 87.3301C63.6952 87.3301 63.4885 87.3718 63.296 87.4529C63.1036 87.534 62.9293 87.6528 62.7835 87.8022C62.4929 88.1425 62.3332 88.5754 62.3332 89.0229C62.3332 89.4704 62.4929 89.9032 62.7835 90.2436Z" fill="#FFF5EA"/>
<path d="M66.5335 90.7382C66.5788 90.7404 66.624 90.7335 66.6665 90.7177C66.7091 90.702 66.7479 90.6779 66.7809 90.6467C66.8126 90.6188 66.8382 90.5846 66.8561 90.5463C66.874 90.508 66.8837 90.4664 66.8848 90.4241V87.6068C66.8835 87.5637 66.8731 87.5214 66.8543 87.4826C66.8356 87.4438 66.8089 87.4094 66.7759 87.3817C66.7091 87.3186 66.6204 87.284 66.5286 87.2852H66.4568V87.2258H67.6936V87.2753H67.6219C67.53 87.2741 67.4413 87.3087 67.3745 87.3718C67.3419 87.3995 67.3157 87.434 67.2977 87.4728C67.2798 87.5117 67.2705 87.554 67.2706 87.5969V90.6121H68.2007C68.3611 90.617 68.5205 90.584 68.6657 90.5156C68.7792 90.4643 68.8785 90.3862 68.9551 90.2881C69.0328 90.181 69.0983 90.0657 69.1505 89.9442H69.2025L68.8735 90.7976H66.4519V90.7382H66.5335Z" fill="#FFF5EA"/>
<path d="M73.2614 90.7383H73.3084V90.8002H72.084V90.7383H72.1335C72.166 90.7404 72.1986 90.7345 72.2283 90.7211C72.2581 90.7078 72.2841 90.6874 72.3042 90.6617C72.3402 90.6211 72.362 90.5698 72.366 90.5157C72.3654 90.4701 72.3571 90.4249 72.3413 90.3821L72.0123 89.5881H70.5034L70.1745 90.3624C70.1559 90.4088 70.1458 90.4583 70.1448 90.5083C70.148 90.5636 70.1688 90.6165 70.2041 90.6592C70.2252 90.6865 70.2527 90.708 70.2843 90.7219C70.3159 90.7357 70.3504 90.7414 70.3847 90.7383H70.4391V90.8002H69.2988V90.7383H69.3458C69.4351 90.7349 69.5213 90.7048 69.5932 90.6518C69.6857 90.5854 69.759 90.4958 69.8059 90.392C70.6766 88.5319 71.1301 87.5574 71.1663 87.4683C71.2149 87.3616 71.2506 87.2495 71.2727 87.1344H71.3271L72.8112 90.392C72.844 90.4876 72.9042 90.5714 72.9842 90.6329C73.0643 90.6945 73.1607 90.7312 73.2614 90.7383ZM70.5801 89.4076H71.9406L71.2727 87.7726L70.5801 89.4076Z" fill="#FFF5EA"/>
<path d="M74.7827 87.399V90.4316C74.7834 90.4895 74.8005 90.546 74.832 90.5946C74.8635 90.6432 74.9082 90.6818 74.9608 90.7061C75.0143 90.7334 75.0738 90.747 75.1339 90.7457H75.2007V90.8075H73.9639V90.7383H74.0356C74.1273 90.7409 74.2162 90.7071 74.283 90.6443C74.3472 90.5855 74.3854 90.5037 74.3894 90.4167V87.399H73.3084C73.2679 87.3971 73.2274 87.4041 73.1898 87.4195C73.1522 87.4349 73.1184 87.4583 73.0908 87.4881C73.0384 87.5474 73.0102 87.6242 73.0116 87.7033V87.7997H72.9448V87.1245C73.0536 87.1622 73.1666 87.1863 73.2812 87.1962C73.4263 87.211 73.5352 87.2184 73.6077 87.2184H75.5519C75.7792 87.2283 76.0064 87.1964 76.2223 87.1245V87.7997H76.1555V87.7033C76.1564 87.6636 76.1495 87.6242 76.135 87.5872C76.1206 87.5503 76.0989 87.5166 76.0714 87.4881C76.0441 87.4585 76.0107 87.4352 75.9736 87.4198C75.9364 87.4044 75.8964 87.3973 75.8562 87.399H74.7827Z" fill="#FFF5EA"/>
<path d="M76.7219 90.7383C76.7671 90.7402 76.8123 90.7331 76.8548 90.7174C76.8972 90.7017 76.9361 90.6777 76.9692 90.6468C77.0317 90.5891 77.0691 90.5091 77.0731 90.4241V87.5944C77.0735 87.5525 77.0646 87.5111 77.047 87.473C77.0295 87.4349 77.0038 87.4012 76.9717 87.3743C76.9035 87.3144 76.8151 87.2825 76.7244 87.2852H76.6403V87.2259H78.3841C78.5276 87.2276 78.6709 87.2151 78.812 87.1888C78.8964 87.1778 78.9793 87.1579 79.0594 87.1294V87.8096H78.9926V87.7206C78.9943 87.641 78.9651 87.5638 78.911 87.5054C78.8834 87.4762 78.85 87.4532 78.8129 87.4378C78.7758 87.4225 78.7359 87.4151 78.6958 87.4163H77.459V88.9326H78.4781C78.512 88.9349 78.546 88.9297 78.5777 88.9173C78.6093 88.9049 78.6378 88.8856 78.6611 88.8609C78.7033 88.8103 78.7253 88.746 78.723 88.6803V88.6036H78.7898V89.4397H78.723V89.3605C78.7274 89.3149 78.718 89.269 78.6959 89.2289C78.6739 89.1887 78.6402 89.1561 78.5993 89.1354C78.5665 89.1234 78.5325 89.1151 78.4979 89.1107H77.459V90.627H78.3965C78.5561 90.632 78.7147 90.5989 78.859 90.5305C78.9702 90.4778 79.0676 90.3999 79.1435 90.3029C79.222 90.1956 79.2892 90.0804 79.3438 89.9591H79.4032L79.0767 90.8125H76.6526V90.7383H76.7219Z" fill="#FFF5EA"/>
<path d="M83.7567 87.7156C83.761 87.6567 83.7469 87.5979 83.7164 87.5474C83.6858 87.4969 83.6402 87.4571 83.586 87.4336C83.5456 87.4189 83.5029 87.4113 83.4599 87.4114H82.2008V88.9277H83.2397C83.2729 88.9299 83.3062 88.9246 83.337 88.9122C83.3678 88.8998 83.3955 88.8806 83.4178 88.8559C83.4581 88.8045 83.4791 88.7406 83.4772 88.6754V88.5987H83.5489V89.4347H83.4772V89.3556C83.4793 89.3159 83.4719 89.2764 83.4556 89.2402C83.4392 89.204 83.4144 89.1723 83.3832 89.1478C83.3429 89.1229 83.2969 89.1084 83.2496 89.1057H82.2008V90.4241C82.2017 90.4762 82.2153 90.5272 82.2403 90.5729C82.2652 90.6186 82.301 90.6575 82.3443 90.6863C82.406 90.7266 82.4784 90.7473 82.5521 90.7457H82.6362V90.8075H81.3994V90.7383H81.481C81.5723 90.7416 81.6612 90.7087 81.7284 90.6468C81.7608 90.6191 81.7872 90.585 81.8059 90.5467C81.8246 90.5084 81.8353 90.4667 81.8372 90.4241V87.5944C81.8373 87.5379 81.821 87.4826 81.7903 87.4352C81.7595 87.3877 81.7157 87.3503 81.6641 87.3273C81.6079 87.2997 81.5461 87.2853 81.4835 87.2852H81.4019V87.2259H83.1606C83.2889 87.225 83.417 87.2151 83.544 87.1962C83.6436 87.1857 83.7416 87.1633 83.8358 87.1294V87.8096H83.7691L83.7567 87.7156Z" fill="#FFF5EA"/>
<path d="M85.3942 87.3767C85.7086 87.2222 86.0542 87.1418 86.4046 87.1418C86.7549 87.1418 87.1006 87.2222 87.415 87.3767C87.7182 87.5271 87.9747 87.7571 88.1571 88.0421C88.335 88.3356 88.4291 88.6722 88.4291 89.0154C88.4291 89.3586 88.335 89.6953 88.1571 89.9888C87.9755 90.2744 87.7187 90.5046 87.415 90.6541C87.1248 90.8082 86.8012 90.8889 86.4726 90.8891C86.1823 90.8947 85.8934 90.8486 85.6192 90.7531C85.3831 90.6676 85.1656 90.5374 84.9786 90.3697C84.7917 90.204 84.6417 90.0009 84.5383 89.7736C84.4269 89.5127 84.373 89.2309 84.38 88.9474C84.3819 88.6258 84.4763 88.3115 84.6521 88.0421C84.8345 87.7571 85.091 87.5271 85.3942 87.3767ZM85.2804 90.2435C85.4257 90.3939 85.5998 90.5135 85.7923 90.5951C85.9848 90.6768 86.1918 90.7189 86.4009 90.7189C86.61 90.7189 86.817 90.6768 87.0095 90.5951C87.202 90.5135 87.3761 90.3939 87.5214 90.2435C87.8134 89.9039 87.974 89.4708 87.974 89.0228C87.974 88.5749 87.8134 88.1418 87.5214 87.8022C87.3755 87.6527 87.2013 87.534 87.0088 87.4529C86.8164 87.3718 86.6097 87.33 86.4009 87.33C86.1921 87.33 85.9854 87.3718 85.7929 87.4529C85.6005 87.534 85.4262 87.6527 85.2804 87.8022C84.9898 88.1425 84.8301 88.5753 84.8301 89.0228C84.8301 89.4704 84.9898 89.9032 85.2804 90.2435Z" fill="#FFF5EA"/>
<path d="M90.0667 87.4114H89.7501V90.4242C89.75 90.4817 89.7653 90.5382 89.7944 90.5878C89.8236 90.6374 89.8655 90.6783 89.9158 90.7061C89.9695 90.7332 90.0289 90.7467 90.089 90.7457H90.1681V90.8076H88.9437V90.7383H89.0278C89.0731 90.7405 89.1183 90.7335 89.1608 90.7178C89.2034 90.7021 89.2422 90.6779 89.2752 90.6468C89.306 90.6186 89.3306 90.5841 89.3472 90.5458C89.3638 90.5074 89.3722 90.466 89.3716 90.4242V87.5944C89.3723 87.553 89.364 87.5119 89.3474 87.4739C89.3307 87.4359 89.3061 87.4019 89.2752 87.3743C89.2076 87.3133 89.1188 87.2813 89.0278 87.2853H88.9437V87.2259H90.4427C90.7575 87.2045 91.0701 87.2918 91.3282 87.4732C91.4325 87.5511 91.5165 87.6528 91.5733 87.7699C91.6301 87.887 91.658 88.016 91.6547 88.146C91.6622 88.4047 91.5681 88.656 91.3925 88.8461C91.2167 89.0326 90.9778 89.1472 90.7222 89.1676C90.9123 89.2814 91.0705 89.4414 91.1823 89.6326C91.1823 89.6326 91.2466 89.7192 91.3876 89.8948C91.5286 90.0704 91.6349 90.2065 91.7289 90.303C91.7958 90.3817 91.8668 90.4568 91.9416 90.5281C92.0088 90.5953 92.0887 90.6485 92.1766 90.6846C92.2645 90.7206 92.3587 90.7389 92.4537 90.7383V90.8001H92.2682C92.0077 90.8151 91.7489 90.7504 91.5261 90.6146C91.3864 90.5196 91.2614 90.4046 91.1551 90.2733L90.8533 89.8528C90.6777 89.6054 90.5837 89.4719 90.5713 89.457C90.506 89.3503 90.4181 89.2591 90.3139 89.1899C90.2096 89.1206 90.0915 89.0751 89.9678 89.0563V89.0068C90.2501 89.0268 90.5339 89.0026 90.8088 88.9351C90.9157 88.8878 91.0086 88.8137 91.0784 88.7199C91.1768 88.5628 91.2283 88.3809 91.2268 88.1955C91.2334 88.092 91.2175 87.9882 91.1804 87.8913C91.1433 87.7944 91.0857 87.7067 91.0116 87.634C90.8503 87.4959 90.6451 87.4197 90.4328 87.4188L90.0667 87.4114Z" fill="#FFF5EA"/>
<path d="M95.4443 86.8127H95.0609V90.3697C95.0608 90.4197 95.0708 90.4692 95.0902 90.5153C95.1095 90.5614 95.1379 90.6032 95.1736 90.6382C95.2093 90.6732 95.2516 90.7008 95.2981 90.7192C95.3446 90.7377 95.3943 90.7467 95.4443 90.7457H95.516V90.8075H94.21V90.7382H94.2866C94.3856 90.7383 94.4806 90.6999 94.5517 90.6311C94.6228 90.5623 94.6644 90.4686 94.6676 90.3697V87.065C94.6668 87.015 94.6561 86.9657 94.6362 86.9198C94.6162 86.874 94.5874 86.8325 94.5513 86.7979C94.5169 86.7627 94.4757 86.7349 94.4302 86.7162C94.3847 86.6974 94.3358 86.6882 94.2866 86.6891H94.21V86.6297H95.8202C95.9752 86.6209 96.1303 86.6428 96.2768 86.6942C96.4233 86.7455 96.5581 86.8253 96.6736 86.929C96.7768 87.031 96.8576 87.1535 96.9109 87.2885C96.9641 87.4235 96.9886 87.5681 96.9828 87.7131C96.9895 88.0161 96.8848 88.3109 96.6884 88.5417C96.6029 88.6508 96.4936 88.739 96.3689 88.7994C96.2442 88.8599 96.1073 88.891 95.9686 88.8905C96.0482 88.9326 96.1202 88.9878 96.1814 89.0538C96.2598 89.1309 96.3325 89.2135 96.399 89.3011C96.6065 89.613 96.8293 89.9143 97.0669 90.204C97.1708 90.3177 97.245 90.3969 97.2895 90.4389C97.334 90.481 97.381 90.5206 97.4305 90.5601C97.479 90.5976 97.5312 90.6299 97.5863 90.6566C97.7024 90.711 97.8292 90.7388 97.9574 90.7382V90.8001H97.6284C97.4646 90.8007 97.3023 90.7687 97.151 90.7061C97.0316 90.6596 96.9198 90.5954 96.8195 90.5156C96.7524 90.4559 96.6888 90.3923 96.6291 90.3252C96.5747 90.2633 96.4262 90.058 96.1838 89.7068C95.9414 89.3555 95.8004 89.1577 95.7609 89.1082C95.7213 89.0587 95.6792 89.0092 95.6347 88.9598C95.5885 88.9017 95.5308 88.8537 95.4653 88.8188C95.3998 88.7839 95.3278 88.7628 95.2538 88.7569V88.6976C95.295 88.7006 95.3363 88.7006 95.3775 88.6976H95.5704C96.0651 88.6976 96.3743 88.4799 96.5004 88.0767C96.5241 88.0048 96.5366 87.9298 96.5376 87.8541V87.7205C96.5397 87.4882 96.4659 87.2615 96.3273 87.0749C96.2632 86.995 96.1824 86.9301 96.0905 86.8848C95.9986 86.8395 95.8979 86.8149 95.7955 86.8127C95.7114 86.8127 95.5943 86.8127 95.4443 86.8127Z" fill="#FFF5EA"/>
<path d="M98.897 87.3768C99.2119 87.2222 99.558 87.1418 99.9087 87.1418C100.259 87.1418 100.606 87.2222 100.92 87.3768C101.224 87.5271 101.48 87.7571 101.662 88.0421C101.84 88.3356 101.934 88.6723 101.934 89.0155C101.934 89.3587 101.84 89.6953 101.662 89.9888C101.481 90.2745 101.224 90.5047 100.92 90.6542C100.63 90.808 100.307 90.8886 99.978 90.8892C99.6877 90.8947 99.3988 90.8486 99.1246 90.7531C98.8884 90.6676 98.6709 90.5375 98.484 90.3697C98.3007 90.2031 98.1541 90 98.0536 89.7736C97.9422 89.5127 97.8882 89.231 97.8953 88.9474C97.8971 88.6258 97.9916 88.3115 98.1674 88.0421C98.3468 87.7591 98.5987 87.5294 98.897 87.3768ZM98.7882 90.2436C98.9335 90.3939 99.1076 90.5135 99.3001 90.5952C99.4926 90.6768 99.6996 90.7189 99.9087 90.7189C100.118 90.7189 100.325 90.6768 100.517 90.5952C100.71 90.5135 100.884 90.3939 101.029 90.2436C101.321 89.9039 101.482 89.4708 101.482 89.0229C101.482 88.575 101.321 88.1419 101.029 87.8022C100.883 87.6528 100.709 87.534 100.517 87.4529C100.324 87.3718 100.118 87.3301 99.9087 87.3301C99.6999 87.3301 99.4932 87.3718 99.3008 87.4529C99.1083 87.534 98.9341 87.6528 98.7882 87.8022C98.4976 88.1425 98.338 88.5754 98.338 89.0229C98.338 89.4704 98.4976 89.9032 98.7882 90.2436Z" fill="#FFF5EA"/>
<path d="M105.858 87.2753H105.786C105.678 87.2757 105.571 87.3056 105.479 87.3619C105.382 87.4156 105.297 87.4899 105.232 87.5796L104.086 89.311V90.4093C104.086 90.4523 104.095 90.4949 104.112 90.5342C104.13 90.5735 104.155 90.6085 104.188 90.6368C104.221 90.6684 104.259 90.693 104.302 90.7092C104.344 90.7253 104.39 90.7327 104.435 90.7308H104.507V90.7927H103.285V90.7383H103.357C103.448 90.7409 103.537 90.7071 103.604 90.6443C103.636 90.6156 103.662 90.5806 103.679 90.5413C103.697 90.5021 103.706 90.4596 103.706 90.4167V89.3135L102.6 87.582C102.543 87.4884 102.462 87.4114 102.365 87.3589C102.269 87.3063 102.16 87.2801 102.051 87.2827H101.979V87.2234H103.364V87.2753H103.292C103.261 87.273 103.23 87.2784 103.202 87.2909C103.173 87.3034 103.148 87.3227 103.129 87.347C103.1 87.3813 103.082 87.4235 103.077 87.4682C103.077 87.5 103.081 87.5316 103.09 87.5622L103.96 89.1082L104.885 87.5672C104.898 87.5357 104.905 87.5022 104.905 87.4682C104.901 87.4235 104.882 87.3813 104.853 87.347C104.833 87.3219 104.807 87.3022 104.777 87.2897C104.747 87.2772 104.715 87.2722 104.683 87.2753H104.611V87.2159H105.86L105.858 87.2753Z" fill="#FFF5EA"/>
<path d="M109.229 90.7383H109.274V90.8002H108.052V90.7383H108.099C108.132 90.7404 108.164 90.7345 108.195 90.7212C108.225 90.7078 108.251 90.6874 108.272 90.6617C108.307 90.6208 108.328 90.5695 108.331 90.5157C108.332 90.47 108.323 90.4246 108.306 90.3821L107.98 89.5881H106.469L106.142 90.3624C106.122 90.4083 106.111 90.458 106.11 90.5083C106.114 90.5638 106.136 90.6166 106.172 90.6592C106.193 90.6861 106.22 90.7074 106.251 90.7212C106.282 90.7351 106.316 90.7409 106.35 90.7383H106.397V90.8002H105.257V90.7383H105.306C105.395 90.7357 105.482 90.7055 105.553 90.6518C105.647 90.5861 105.72 90.4963 105.766 90.392C106.637 88.5319 107.09 87.5574 107.127 87.4683C107.176 87.3616 107.212 87.2495 107.235 87.1344H107.295L108.779 90.392C108.812 90.4872 108.873 90.5707 108.952 90.6322C109.032 90.6937 109.129 90.7306 109.229 90.7383ZM106.553 89.415H107.913L107.245 87.78L106.553 89.415Z" fill="#FFF5EA"/>
<path d="M109.659 90.7383C109.705 90.7406 109.75 90.7337 109.793 90.7179C109.835 90.7022 109.874 90.678 109.907 90.6467C109.939 90.6186 109.964 90.5844 109.983 90.5462C110.001 90.508 110.011 90.4665 110.013 90.4241V87.6068C110.011 87.5637 110 87.5215 109.981 87.4828C109.961 87.4441 109.935 87.4097 109.902 87.3817C109.835 87.3186 109.746 87.284 109.655 87.2852H109.583V87.2258H110.82V87.2753H110.748C110.656 87.2741 110.567 87.3087 110.5 87.3718C110.468 87.3995 110.442 87.434 110.424 87.4728C110.406 87.5117 110.396 87.554 110.397 87.5969V90.6121H111.327C111.488 90.6168 111.648 90.5837 111.794 90.5156C111.907 90.463 112.006 90.3851 112.084 90.2881C112.159 90.1803 112.224 90.0651 112.276 89.9442H112.336L111.994 90.8075H109.573V90.7383H109.659Z" fill="#FFF5EA"/>
<path d="M112.791 90.6097C112.777 90.5131 112.771 90.4154 112.774 90.3178C112.775 90.1655 112.801 90.0143 112.85 89.8701H112.922C112.922 89.9047 112.922 89.9419 112.922 89.9765C112.919 90.0746 112.936 90.1723 112.973 90.2635C113.01 90.3546 113.065 90.4371 113.135 90.5058C113.214 90.577 113.307 90.6318 113.407 90.667C113.508 90.7022 113.615 90.7172 113.721 90.7111C113.941 90.7241 114.159 90.6594 114.337 90.5281C114.407 90.472 114.464 90.4004 114.502 90.3189C114.54 90.2374 114.559 90.1481 114.557 90.0581C114.559 89.9672 114.541 89.8769 114.504 89.7939C114.466 89.7109 114.411 89.6373 114.342 89.5782L113.15 88.6581C113.055 88.5777 112.981 88.4769 112.931 88.3633C112.881 88.2498 112.858 88.1265 112.863 88.0026C112.862 87.8495 112.906 87.6996 112.991 87.5722C113.081 87.4375 113.205 87.3291 113.35 87.2581C113.518 87.1772 113.703 87.1374 113.889 87.1418C114.074 87.1393 114.258 87.1575 114.438 87.1962H114.636V87.8468H114.572C114.576 87.773 114.562 87.6994 114.532 87.6319C114.502 87.5644 114.456 87.505 114.399 87.4584C114.254 87.3589 114.08 87.311 113.904 87.3224C113.713 87.3145 113.526 87.3721 113.372 87.4856C113.306 87.5339 113.252 87.5976 113.215 87.6713C113.179 87.7449 113.16 87.8264 113.162 87.9086C113.164 87.9965 113.185 88.0828 113.226 88.1609C113.266 88.239 113.324 88.3067 113.395 88.3588L114.602 89.2913C114.693 89.3681 114.765 89.465 114.813 89.5744C114.861 89.6839 114.882 89.8029 114.876 89.9221C114.878 90.052 114.851 90.1807 114.798 90.2994C114.745 90.4181 114.667 90.5239 114.569 90.6097C114.367 90.7946 114.101 90.8947 113.827 90.8892C113.63 90.8898 113.433 90.8657 113.241 90.8175C113.077 90.7852 112.922 90.714 112.791 90.6097Z" fill="#FFF5EA"/>
</svg>
